<?xml version="1.0" encoding="UTF-8"?>
<svg id="Layer_1" xmlns="http://www.w3.org/2000/svg" version="1.1" viewBox="0 0 500 168.5">
  <!-- Generator: Adobe Illustrator 29.8.1, SVG Export Plug-In . SVG Version: 2.1.1 Build 2)  -->
  <defs>
    <style>
      .st0 {
        fill: #006fcf;
      }
    </style>
  </defs>
  <path class="st0" d="M471.1,117.2h-13.9c-2.9,0-5.3-1.9-5.3-4.3s2.4-4.3,5.3-4.3h25.4l5.8-12.9h-31.2c-13,0-20.1,7.7-20.1,17.7s7.2,16.8,18.2,16.8h13.9c2.9,0,5.3,1.9,5.3,4.3s-1.9,4.3-5.3,4.3h-30.7v12.9h30.7c13,0,20.1-7.7,20.1-18.2s-6.7-16.3-18.2-16.3M415,117.2h-13.9c-2.9,0-5.3-1.9-5.3-4.3s2.4-4.3,5.3-4.3h25.4l5.8-12.9h-31.2c-13,0-20.1,7.7-20.1,17.7s7.2,16.8,18.2,16.8h13.9c2.9,0,5.3,1.9,5.3,4.3s-1.9,4.3-5.3,4.3h-30.7v12.9h30.7c13,0,20.1-7.7,20.1-18.2.5-10.6-6.2-16.3-18.2-16.3M326.3,152.2h48v-12.9h-32.6v-9.1h32.1v-12.9h-32.1v-9.1h32.6v-12.9h-48v57.1ZM296.5,119.6h-15.8v-11.5h15.8c4.3,0,6.7,2.9,6.7,5.8s-2.4,5.8-6.7,5.8M318.6,113.4c0-11-7.7-18.2-20.1-18.2h-33.1v57.1h15.3v-19.7h5.8l17.3,19.7h18.2l-18.7-20.6c9.6-2.4,15.3-9.1,15.3-18.2M236.6,120.6h-16.3v-12.5h16.3c4.3,0,6.7,2.9,6.7,6.2s-1.9,6.2-6.7,6.2M238.5,95.2h-33.1v57.1h15.3v-18.7h17.7c13,0,20.6-8.2,20.6-19.2-.5-11.5-8.2-19.2-20.6-19.2M202.5,95.2h-19.7l-14.4,17.3-14.9-17.3h-20.1l25.4,28.3-25.9,28.8h19.7l15.3-18.2,15.3,18.2h20.1l-25.9-29.3,24.9-27.8ZM83.1,152.2h48v-12.9h-33.1v-9.1h32.1v-12.9h-32.1v-9.1h33.1v-12.9h-48v57.1ZM465.4,56.8l-23.5-34.5h-19.2v56.6h15.3v-36l24,36h18.2V22.2h-14.9v34.5ZM377.1,54.9l8.2-19.2,8.2,19.2h-16.3ZM375.2,22.2l-24.9,57.1h16.8l4.8-11.5h26.4l4.8,11.5h17.3l-25.4-57.1h-19.7ZM325.3,51v-1c0-8.6,4.8-14.4,14.4-14.4h16.8v-13.9h-18.2c-18.7,0-28.3,12-28.3,27.8v1c0,17.7,11,27.8,27.8,27.8h5.3l6.2-13h-9.1c-9.1.5-14.9-4.8-14.9-14.4M286.9,78.8h15.3V22.2h-15.3v56.6ZM257.2,46.2h-15.8v-11.5h15.8c4.3,0,6.7,2.9,6.7,5.8s-2.4,5.8-6.7,5.8M279.3,40.5c0-11-7.7-18.2-20.1-18.2h-33.1v57.1h15.3v-20.1h5.8l17.3,19.7h18.7l-19.2-20.6c9.6-1.9,15.3-9.1,15.3-17.7M168,78.8h48v-13h-32.6v-9.1h31.7v-13h-31.7v-9.1h32.6v-12.5h-48v56.6ZM119.5,57.7l-12.9-35.5h-23.5v56.6h14.9v-40.8l14.9,40.8h13.4l14.9-40.8v40.8h15.4V22.2h-24l-13,35.5ZM37,54.9l8.2-19.2,8.2,19.2h-16.3ZM35.1,22.2l-24.9,56.6h16.8l4.8-11.5h26.4l4.8,11.5h17.3l-25.4-56.6h-19.7Z"/>
</svg>